<svg aria-roledescription="sequence" role="graphics-document document" viewBox="-50 -10 2407 1620" style="max-width: 2407px;" xmlns="http://www.w3.org/2000/svg" width="100%" id="mermaid-svg-1756059842053-dfsz9wfs6"><g><rect class="actor" ry="3" rx="3" height="65" width="183" stroke="#666" fill="#eaeaea" y="1534" x="2124"/><text style="text-anchor: middle; font-size: 16px; font-weight: 400;" class="actor" alignment-baseline="central" dominant-baseline="central" y="1566.5" x="2215.5"><tspan dy="0" x="2215.5">"WhatsApp Graph API"</tspan></text></g><g><rect class="actor" ry="3" rx="3" height="65" width="176" stroke="#666" fill="#eaeaea" y="1534" x="1898"/><text style="text-anchor: middle; font-size: 16px; font-weight: 400;" class="actor" alignment-baseline="central" dominant-baseline="central" y="1566.5" x="1986"><tspan dy="0" x="1986">"BatchScanner (task)"</tspan></text></g><g><rect class="actor" ry="3" rx="3" height="65" width="207" stroke="#666" fill="#eaeaea" y="1534" x="1529.5"/><text style="text-anchor: middle; font-size: 16px; font-weight: 400;" class="actor" alignment-baseline="central" dominant-baseline="central" y="1566.5" x="1633"><tspan dy="0" x="1633">"Redis (MessageBatcher)"</tspan></text></g><g><rect class="actor" ry="3" rx="3" height="65" width="150" stroke="#666" fill="#eaeaea" y="1534" x="1329.5"/><text style="text-anchor: middle; font-size: 16px; font-weight: 400;" class="actor" alignment-baseline="central" dominant-baseline="central" y="1566.5" x="1404.5"><tspan dy="0" x="1404.5">"Supabase DB"</tspan></text></g><g><rect class="actor" ry="3" rx="3" height="65" width="167" stroke="#666" fill="#eaeaea" y="1534" x="916"/><text style="text-anchor: middle; font-size: 16px; font-weight: 400;" class="actor" alignment-baseline="central" dominant-baseline="central" y="1566.5" x="999.5"><tspan dy="0" x="999.5">"ResponseManager"</tspan></text></g><g><rect class="actor" ry="3" rx="3" height="65" width="218" stroke="#666" fill="#eaeaea" y="1534" x="465.5"/><text style="text-anchor: middle; font-size: 16px; font-weight: 400;" class="actor" alignment-baseline="central" dominant-baseline="central" y="1566.5" x="574.5"><tspan dy="0" x="574.5">"FastAPI Router /whatsapp"</tspan></text></g><g><rect class="actor" ry="3" rx="3" height="65" width="177" stroke="#666" fill="#eaeaea" y="1534" x="200"/><text style="text-anchor: middle; font-size: 16px; font-weight: 400;" class="actor" alignment-baseline="central" dominant-baseline="central" y="1566.5" x="288.5"><tspan dy="0" x="288.5">"WhatsApp Webhook"</tspan></text></g><g><rect class="actor" ry="3" rx="3" height="65" width="150" stroke="#666" fill="#eaeaea" y="1534" x="0"/><text style="text-anchor: middle; font-size: 16px; font-weight: 400;" class="actor" alignment-baseline="central" dominant-baseline="central" y="1566.5" x="75"><tspan dy="0" x="75">"Utilisateur/Client"</tspan></text></g><g><line stroke="#999" stroke-width="0.5px" class="200" y2="1534" x2="2215.5" y1="5" x1="2215.5" id="actor23"/><g id="root-23"><rect class="actor" ry="3" rx="3" height="65" width="183" stroke="#666" fill="#eaeaea" y="0" x="2124"/><text style="text-anchor: middle; font-size: 16px; font-weight: 400;" class="actor" alignment-baseline="central" dominant-baseline="central" y="32.5" x="2215.5"><tspan dy="0" x="2215.5">"WhatsApp Graph API"</tspan></text></g></g><g><line stroke="#999" stroke-width="0.5px" class="200" y2="1534" x2="1986" y1="5" x1="1986" id="actor22"/><g id="root-22"><rect class="actor" ry="3" rx="3" height="65" width="176" stroke="#666" fill="#eaeaea" y="0" x="1898"/><text style="text-anchor: middle; font-size: 16px; font-weight: 400;" class="actor" alignment-baseline="central" dominant-baseline="central" y="32.5" x="1986"><tspan dy="0" x="1986">"BatchScanner (task)"</tspan></text></g></g><g><line stroke="#999" stroke-width="0.5px" class="200" y2="1534" x2="1633" y1="5" x1="1633" id="actor21"/><g id="root-21"><rect class="actor" ry="3" rx="3" height="65" width="207" stroke="#666" fill="#eaeaea" y="0" x="1529.5"/><text style="text-anchor: middle; font-size: 16px; font-weight: 400;" class="actor" alignment-baseline="central" dominant-baseline="central" y="32.5" x="1633"><tspan dy="0" x="1633">"Redis (MessageBatcher)"</tspan></text></g></g><g><line stroke="#999" stroke-width="0.5px" class="200" y2="1534" x2="1404.5" y1="5" x1="1404.5" id="actor20"/><g id="root-20"><rect class="actor" ry="3" rx="3" height="65" width="150" stroke="#666" fill="#eaeaea" y="0" x="1329.5"/><text style="text-anchor: middle; font-size: 16px; font-weight: 400;" class="actor" alignment-baseline="central" dominant-baseline="central" y="32.5" x="1404.5"><tspan dy="0" x="1404.5">"Supabase DB"</tspan></text></g></g><g><line stroke="#999" stroke-width="0.5px" class="200" y2="1534" x2="999.5" y1="5" x1="999.5" id="actor19"/><g id="root-19"><rect class="actor" ry="3" rx="3" height="65" width="167" stroke="#666" fill="#eaeaea" y="0" x="916"/><text style="text-anchor: middle; font-size: 16px; font-weight: 400;" class="actor" alignment-baseline="central" dominant-baseline="central" y="32.5" x="999.5"><tspan dy="0" x="999.5">"ResponseManager"</tspan></text></g></g><g><line stroke="#999" stroke-width="0.5px" class="200" y2="1534" x2="574.5" y1="5" x1="574.5" id="actor18"/><g id="root-18"><rect class="actor" ry="3" rx="3" height="65" width="218" stroke="#666" fill="#eaeaea" y="0" x="465.5"/><text style="text-anchor: middle; font-size: 16px; font-weight: 400;" class="actor" alignment-baseline="central" dominant-baseline="central" y="32.5" x="574.5"><tspan dy="0" x="574.5">"FastAPI Router /whatsapp"</tspan></text></g></g><g><line stroke="#999" stroke-width="0.5px" class="200" y2="1534" x2="288.5" y1="5" x1="288.5" id="actor17"/><g id="root-17"><rect class="actor" ry="3" rx="3" height="65" width="177" stroke="#666" fill="#eaeaea" y="0" x="200"/><text style="text-anchor: middle; font-size: 16px; font-weight: 400;" class="actor" alignment-baseline="central" dominant-baseline="central" y="32.5" x="288.5"><tspan dy="0" x="288.5">"WhatsApp Webhook"</tspan></text></g></g><g><line stroke="#999" stroke-width="0.5px" class="200" y2="1534" x2="75" y1="5" x1="75" id="actor16"/><g id="root-16"><rect class="actor" ry="3" rx="3" height="65" width="150" stroke="#666" fill="#eaeaea" y="0" x="0"/><text style="text-anchor: middle; font-size: 16px; font-weight: 400;" class="actor" alignment-baseline="central" dominant-baseline="central" y="32.5" x="75"><tspan dy="0" x="75">"Utilisateur/Client"</tspan></text></g></g><style>#mermaid-svg-1756059842053-dfsz9wfs6{font-family:"trebuchet ms",verdana,arial,sans-serif;font-size:16px;fill:rgba(204, 204, 204, 0.87);}#mermaid-svg-1756059842053-dfsz9wfs6 .error-icon{fill:#bf616a;}#mermaid-svg-1756059842053-dfsz9wfs6 .error-text{fill:#bf616a;stroke:#bf616a;}#mermaid-svg-1756059842053-dfsz9wfs6 .edge-thickness-normal{stroke-width:2px;}#mermaid-svg-1756059842053-dfsz9wfs6 .edge-thickness-thick{stroke-width:3.5px;}#mermaid-svg-1756059842053-dfsz9wfs6 .edge-pattern-solid{stroke-dasharray:0;}#mermaid-svg-1756059842053-dfsz9wfs6 .edge-pattern-dashed{stroke-dasharray:3;}#mermaid-svg-1756059842053-dfsz9wfs6 .edge-pattern-dotted{stroke-dasharray:2;}#mermaid-svg-1756059842053-dfsz9wfs6 .marker{fill:rgba(204, 204, 204, 0.87);stroke:rgba(204, 204, 204, 0.87);}#mermaid-svg-1756059842053-dfsz9wfs6 .marker.cross{stroke:rgba(204, 204, 204, 0.87);}#mermaid-svg-1756059842053-dfsz9wfs6 svg{font-family:"trebuchet ms",verdana,arial,sans-serif;font-size:16px;}#mermaid-svg-1756059842053-dfsz9wfs6 .actor{stroke:hsl(210, 0%, 73.137254902%);fill:#81a1c1;}#mermaid-svg-1756059842053-dfsz9wfs6 text.actor&gt;tspan{fill:#191c22;stroke:none;}#mermaid-svg-1756059842053-dfsz9wfs6 .actor-line{stroke:rgba(204, 204, 204, 0.87);}#mermaid-svg-1756059842053-dfsz9wfs6 .messageLine0{stroke-width:1.5;stroke-dasharray:none;stroke:rgba(204, 204, 204, 0.87);}#mermaid-svg-1756059842053-dfsz9wfs6 .messageLine1{stroke-width:1.5;stroke-dasharray:2,2;stroke:rgba(204, 204, 204, 0.87);}#mermaid-svg-1756059842053-dfsz9wfs6 #arrowhead path{fill:rgba(204, 204, 204, 0.87);stroke:rgba(204, 204, 204, 0.87);}#mermaid-svg-1756059842053-dfsz9wfs6 .sequenceNumber{fill:rgba(204, 204, 204, 0.61);}#mermaid-svg-1756059842053-dfsz9wfs6 #sequencenumber{fill:rgba(204, 204, 204, 0.87);}#mermaid-svg-1756059842053-dfsz9wfs6 #crosshead path{fill:rgba(204, 204, 204, 0.87);stroke:rgba(204, 204, 204, 0.87);}#mermaid-svg-1756059842053-dfsz9wfs6 .messageText{fill:rgba(204, 204, 204, 0.87);stroke:none;}#mermaid-svg-1756059842053-dfsz9wfs6 .labelBox{stroke:#454545;fill:#141414;}#mermaid-svg-1756059842053-dfsz9wfs6 .labelText,#mermaid-svg-1756059842053-dfsz9wfs6 .labelText&gt;tspan{fill:rgba(204, 204, 204, 0.87);stroke:none;}#mermaid-svg-1756059842053-dfsz9wfs6 .loopText,#mermaid-svg-1756059842053-dfsz9wfs6 .loopText&gt;tspan{fill:#d8dee9;stroke:none;}#mermaid-svg-1756059842053-dfsz9wfs6 .loopLine{stroke-width:2px;stroke-dasharray:2,2;stroke:#454545;fill:#454545;}#mermaid-svg-1756059842053-dfsz9wfs6 .note{stroke:#2a2a2a;fill:#1a1a1a;}#mermaid-svg-1756059842053-dfsz9wfs6 .noteText,#mermaid-svg-1756059842053-dfsz9wfs6 .noteText&gt;tspan{fill:rgba(204, 204, 204, 0.87);stroke:none;}#mermaid-svg-1756059842053-dfsz9wfs6 .activation0{fill:rgba(64, 64, 64, 0.47);stroke:#30373a;}#mermaid-svg-1756059842053-dfsz9wfs6 .activation1{fill:rgba(64, 64, 64, 0.47);stroke:#30373a;}#mermaid-svg-1756059842053-dfsz9wfs6 .activation2{fill:rgba(64, 64, 64, 0.47);stroke:#30373a;}#mermaid-svg-1756059842053-dfsz9wfs6 .actorPopupMenu{position:absolute;}#mermaid-svg-1756059842053-dfsz9wfs6 .actorPopupMenuPanel{position:absolute;fill:#81a1c1;box-shadow:0px 8px 16px 0px rgba(0,0,0,0.2);filter:drop-shadow(3px 5px 2px rgb(0 0 0 / 0.4));}#mermaid-svg-1756059842053-dfsz9wfs6 .actor-man line{stroke:hsl(210, 0%, 73.137254902%);fill:#81a1c1;}#mermaid-svg-1756059842053-dfsz9wfs6 .actor-man circle,#mermaid-svg-1756059842053-dfsz9wfs6 line{stroke:hsl(210, 0%, 73.137254902%);fill:#81a1c1;stroke-width:2px;}#mermaid-svg-1756059842053-dfsz9wfs6 :root{--mermaid-font-family:"trebuchet ms",verdana,arial,sans-serif;}</style><g/><defs><symbol height="24" width="24" id="computer"><path d="M2 2v13h20v-13h-20zm18 11h-16v-9h16v9zm-10.228 6l.466-1h3.524l.467 1h-4.457zm14.228 3h-24l2-6h2.104l-1.33 4h18.45l-1.297-4h2.073l2 6zm-5-10h-14v-7h14v7z" transform="scale(.5)"/></symbol></defs><defs><symbol clip-rule="evenodd" fill-rule="evenodd" id="database"><path d="M12.258.001l.256.004.255.005.253.008.251.01.249.012.247.015.246.016.242.019.241.02.239.023.236.024.233.027.231.028.229.031.225.032.223.034.22.036.217.038.214.04.211.041.208.043.205.045.201.046.198.048.194.05.191.051.187.053.183.054.18.056.175.057.172.059.168.06.163.061.16.063.155.064.15.066.074.033.073.033.071.034.07.034.069.035.068.035.067.035.066.035.064.036.064.036.062.036.06.036.06.037.058.037.058.037.055.038.055.038.053.038.052.038.051.039.05.039.048.039.047.039.045.04.044.04.043.04.041.04.04.041.039.041.037.041.036.041.034.041.033.042.032.042.03.042.029.042.027.042.026.043.024.043.023.043.021.043.02.043.018.044.017.043.015.044.013.044.012.044.011.045.009.044.007.045.006.045.004.045.002.045.001.045v17l-.001.045-.002.045-.004.045-.006.045-.007.045-.009.044-.011.045-.012.044-.013.044-.015.044-.017.043-.018.044-.02.043-.021.043-.023.043-.024.043-.026.043-.027.042-.029.042-.03.042-.032.042-.033.042-.034.041-.036.041-.037.041-.039.041-.04.041-.041.04-.043.04-.044.04-.045.04-.047.039-.048.039-.05.039-.051.039-.052.038-.053.038-.055.038-.055.038-.058.037-.058.037-.06.037-.06.036-.062.036-.064.036-.064.036-.066.035-.067.035-.068.035-.069.035-.07.034-.071.034-.073.033-.074.033-.15.066-.155.064-.16.063-.163.061-.168.06-.172.059-.175.057-.18.056-.183.054-.187.053-.191.051-.194.05-.198.048-.201.046-.205.045-.208.043-.211.041-.214.04-.217.038-.22.036-.223.034-.225.032-.229.031-.231.028-.233.027-.236.024-.239.023-.241.02-.242.019-.246.016-.247.015-.249.012-.251.01-.253.008-.255.005-.256.004-.258.001-.258-.001-.256-.004-.255-.005-.253-.008-.251-.01-.249-.012-.247-.015-.245-.016-.243-.019-.241-.02-.238-.023-.236-.024-.234-.027-.231-.028-.228-.031-.226-.032-.223-.034-.22-.036-.217-.038-.214-.04-.211-.041-.208-.043-.204-.045-.201-.046-.198-.048-.195-.05-.19-.051-.187-.053-.184-.054-.179-.056-.176-.057-.172-.059-.167-.06-.164-.061-.159-.063-.155-.064-.151-.066-.074-.033-.072-.033-.072-.034-.07-.034-.069-.035-.068-.035-.067-.035-.066-.035-.064-.036-.063-.036-.062-.036-.061-.036-.06-.037-.058-.037-.057-.037-.056-.038-.055-.038-.053-.038-.052-.038-.051-.039-.049-.039-.049-.039-.046-.039-.046-.04-.044-.04-.043-.04-.041-.04-.04-.041-.039-.041-.037-.041-.036-.041-.034-.041-.033-.042-.032-.042-.03-.042-.029-.042-.027-.042-.026-.043-.024-.043-.023-.043-.021-.043-.02-.043-.018-.044-.017-.043-.015-.044-.013-.044-.012-.044-.011-.045-.009-.044-.007-.045-.006-.045-.004-.045-.002-.045-.001-.045v-17l.001-.045.002-.045.004-.045.006-.045.007-.045.009-.044.011-.045.012-.044.013-.044.015-.044.017-.043.018-.044.02-.043.021-.043.023-.043.024-.043.026-.043.027-.042.029-.042.03-.042.032-.042.033-.042.034-.041.036-.041.037-.041.039-.041.04-.041.041-.04.043-.04.044-.04.046-.04.046-.039.049-.039.049-.039.051-.039.052-.038.053-.038.055-.038.056-.038.057-.037.058-.037.06-.037.061-.036.062-.036.063-.036.064-.036.066-.035.067-.035.068-.035.069-.035.07-.034.072-.034.072-.033.074-.033.151-.066.155-.064.159-.063.164-.061.167-.06.172-.059.176-.057.179-.056.184-.054.187-.053.19-.051.195-.05.198-.048.201-.046.204-.045.208-.043.211-.041.214-.04.217-.038.22-.036.223-.034.226-.032.228-.031.231-.028.234-.027.236-.024.238-.023.241-.02.243-.019.245-.016.247-.015.249-.012.251-.01.253-.008.255-.005.256-.004.258-.001.258.001zm-9.258 20.499v.01l.001.021.003.021.004.022.005.021.006.022.007.022.009.023.01.022.011.023.012.023.013.023.015.023.016.024.017.023.018.024.019.024.021.024.022.025.023.024.024.025.052.049.056.05.061.051.066.051.07.051.075.051.079.052.084.052.088.052.092.052.097.052.102.051.105.052.11.052.114.051.119.051.123.051.127.05.131.05.135.05.139.048.144.049.147.047.152.047.155.047.16.045.163.045.167.043.171.043.176.041.178.041.183.039.187.039.19.037.194.035.197.035.202.033.204.031.209.03.212.029.216.027.219.025.222.024.226.021.23.02.233.018.236.016.24.015.243.012.246.01.249.008.253.005.256.004.259.001.26-.001.257-.004.254-.005.25-.008.247-.011.244-.012.241-.014.237-.016.233-.018.231-.021.226-.021.224-.024.22-.026.216-.027.212-.028.21-.031.205-.031.202-.034.198-.034.194-.036.191-.037.187-.039.183-.04.179-.04.175-.042.172-.043.168-.044.163-.045.16-.046.155-.046.152-.047.148-.048.143-.049.139-.049.136-.05.131-.05.126-.05.123-.051.118-.052.114-.051.11-.052.106-.052.101-.052.096-.052.092-.052.088-.053.083-.051.079-.052.074-.052.07-.051.065-.051.06-.051.056-.05.051-.05.023-.024.023-.025.021-.024.02-.024.019-.024.018-.024.017-.024.015-.023.014-.024.013-.023.012-.023.01-.023.01-.022.008-.022.006-.022.006-.022.004-.022.004-.021.001-.021.001-.021v-4.127l-.077.055-.08.053-.083.054-.085.053-.087.052-.09.052-.093.051-.095.05-.097.05-.1.049-.102.049-.105.048-.106.047-.109.047-.111.046-.114.045-.115.045-.118.044-.12.043-.122.042-.124.042-.126.041-.128.04-.13.04-.132.038-.134.038-.135.037-.138.037-.139.035-.142.035-.143.034-.144.033-.147.032-.148.031-.15.03-.151.03-.153.029-.154.027-.156.027-.158.026-.159.025-.161.024-.162.023-.163.022-.165.021-.166.02-.167.019-.169.018-.169.017-.171.016-.173.015-.173.014-.175.013-.175.012-.177.011-.178.01-.179.008-.179.008-.181.006-.182.005-.182.004-.184.003-.184.002h-.37l-.184-.002-.184-.003-.182-.004-.182-.005-.181-.006-.179-.008-.179-.008-.178-.01-.176-.011-.176-.012-.175-.013-.173-.014-.172-.015-.171-.016-.17-.017-.169-.018-.167-.019-.166-.02-.165-.021-.163-.022-.162-.023-.161-.024-.159-.025-.157-.026-.156-.027-.155-.027-.153-.029-.151-.03-.15-.03-.148-.031-.146-.032-.145-.033-.143-.034-.141-.035-.14-.035-.137-.037-.136-.037-.134-.038-.132-.038-.13-.04-.128-.04-.126-.041-.124-.042-.122-.042-.12-.044-.117-.043-.116-.045-.113-.045-.112-.046-.109-.047-.106-.047-.105-.048-.102-.049-.1-.049-.097-.05-.095-.05-.093-.052-.09-.051-.087-.052-.085-.053-.083-.054-.08-.054-.077-.054v4.127zm0-5.654v.011l.001.021.003.021.004.021.005.022.006.022.007.022.009.022.01.022.011.023.012.023.013.023.015.024.016.023.017.024.018.024.019.024.021.024.022.024.023.025.024.024.052.05.056.05.061.05.066.051.07.051.075.052.079.051.084.052.088.052.092.052.097.052.102.052.105.052.11.051.114.051.119.052.123.05.127.051.131.05.135.049.139.049.144.048.147.048.152.047.155.046.16.045.163.045.167.044.171.042.176.042.178.04.183.04.187.038.19.037.194.036.197.034.202.033.204.032.209.03.212.028.216.027.219.025.222.024.226.022.23.02.233.018.236.016.24.014.243.012.246.01.249.008.253.006.256.003.259.001.26-.001.257-.003.254-.006.25-.008.247-.01.244-.012.241-.015.237-.016.233-.018.231-.02.226-.022.224-.024.22-.025.216-.027.212-.029.21-.03.205-.032.202-.033.198-.035.194-.036.191-.037.187-.039.183-.039.179-.041.175-.042.172-.043.168-.044.163-.045.16-.045.155-.047.152-.047.148-.048.143-.048.139-.05.136-.049.131-.05.126-.051.123-.051.118-.051.114-.052.11-.052.106-.052.101-.052.096-.052.092-.052.088-.052.083-.052.079-.052.074-.051.07-.052.065-.051.06-.05.056-.051.051-.049.023-.025.023-.024.021-.025.02-.024.019-.024.018-.024.017-.024.015-.023.014-.023.013-.024.012-.022.01-.023.01-.023.008-.022.006-.022.006-.022.004-.021.004-.022.001-.021.001-.021v-4.139l-.077.054-.08.054-.083.054-.085.052-.087.053-.09.051-.093.051-.095.051-.097.05-.1.049-.102.049-.105.048-.106.047-.109.047-.111.046-.114.045-.115.044-.118.044-.12.044-.122.042-.124.042-.126.041-.128.04-.13.039-.132.039-.134.038-.135.037-.138.036-.139.036-.142.035-.143.033-.144.033-.147.033-.148.031-.15.03-.151.03-.153.028-.154.028-.156.027-.158.026-.159.025-.161.024-.162.023-.163.022-.165.021-.166.02-.167.019-.169.018-.169.017-.171.016-.173.015-.173.014-.175.013-.175.012-.177.011-.178.009-.179.009-.179.007-.181.007-.182.005-.182.004-.184.003-.184.002h-.37l-.184-.002-.184-.003-.182-.004-.182-.005-.181-.007-.179-.007-.179-.009-.178-.009-.176-.011-.176-.012-.175-.013-.173-.014-.172-.015-.171-.016-.17-.017-.169-.018-.167-.019-.166-.02-.165-.021-.163-.022-.162-.023-.161-.024-.159-.025-.157-.026-.156-.027-.155-.028-.153-.028-.151-.03-.15-.03-.148-.031-.146-.033-.145-.033-.143-.033-.141-.035-.14-.036-.137-.036-.136-.037-.134-.038-.132-.039-.13-.039-.128-.04-.126-.041-.124-.042-.122-.043-.12-.043-.117-.044-.116-.044-.113-.046-.112-.046-.109-.046-.106-.047-.105-.048-.102-.049-.1-.049-.097-.05-.095-.051-.093-.051-.09-.051-.087-.053-.085-.052-.083-.054-.08-.054-.077-.054v4.139zm0-5.666v.011l.001.02.003.022.004.021.005.022.006.021.007.022.009.023.01.022.011.023.012.023.013.023.015.023.016.024.017.024.018.023.019.024.021.025.022.024.023.024.024.025.052.05.056.05.061.05.066.051.07.051.075.052.079.051.084.052.088.052.092.052.097.052.102.052.105.051.11.052.114.051.119.051.123.051.127.05.131.05.135.05.139.049.144.048.147.048.152.047.155.046.16.045.163.045.167.043.171.043.176.042.178.04.183.04.187.038.19.037.194.036.197.034.202.033.204.032.209.03.212.028.216.027.219.025.222.024.226.021.23.02.233.018.236.017.24.014.243.012.246.01.249.008.253.006.256.003.259.001.26-.001.257-.003.254-.006.25-.008.247-.01.244-.013.241-.014.237-.016.233-.018.231-.02.226-.022.224-.024.22-.025.216-.027.212-.029.21-.03.205-.032.202-.033.198-.035.194-.036.191-.037.187-.039.183-.039.179-.041.175-.042.172-.043.168-.044.163-.045.16-.045.155-.047.152-.047.148-.048.143-.049.139-.049.136-.049.131-.051.126-.05.123-.051.118-.052.114-.051.11-.052.106-.052.101-.052.096-.052.092-.052.088-.052.083-.052.079-.052.074-.052.07-.051.065-.051.06-.051.056-.05.051-.049.023-.025.023-.025.021-.024.02-.024.019-.024.018-.024.017-.024.015-.023.014-.024.013-.023.012-.023.01-.022.01-.023.008-.022.006-.022.006-.022.004-.022.004-.021.001-.021.001-.021v-4.153l-.077.054-.08.054-.083.053-.085.053-.087.053-.09.051-.093.051-.095.051-.097.05-.1.049-.102.048-.105.048-.106.048-.109.046-.111.046-.114.046-.115.044-.118.044-.12.043-.122.043-.124.042-.126.041-.128.04-.13.039-.132.039-.134.038-.135.037-.138.036-.139.036-.142.034-.143.034-.144.033-.147.032-.148.032-.15.03-.151.03-.153.028-.154.028-.156.027-.158.026-.159.024-.161.024-.162.023-.163.023-.165.021-.166.02-.167.019-.169.018-.169.017-.171.016-.173.015-.173.014-.175.013-.175.012-.177.01-.178.01-.179.009-.179.007-.181.006-.182.006-.182.004-.184.003-.184.001-.185.001-.185-.001-.184-.001-.184-.003-.182-.004-.182-.006-.181-.006-.179-.007-.179-.009-.178-.01-.176-.01-.176-.012-.175-.013-.173-.014-.172-.015-.171-.016-.17-.017-.169-.018-.167-.019-.166-.02-.165-.021-.163-.023-.162-.023-.161-.024-.159-.024-.157-.026-.156-.027-.155-.028-.153-.028-.151-.03-.15-.03-.148-.032-.146-.032-.145-.033-.143-.034-.141-.034-.14-.036-.137-.036-.136-.037-.134-.038-.132-.039-.13-.039-.128-.041-.126-.041-.124-.041-.122-.043-.12-.043-.117-.044-.116-.044-.113-.046-.112-.046-.109-.046-.106-.048-.105-.048-.102-.048-.1-.05-.097-.049-.095-.051-.093-.051-.09-.052-.087-.052-.085-.053-.083-.053-.08-.054-.077-.054v4.153zm8.74-8.179l-.257.004-.254.005-.25.008-.247.011-.244.012-.241.014-.237.016-.233.018-.231.021-.226.022-.224.023-.22.026-.216.027-.212.028-.21.031-.205.032-.202.033-.198.034-.194.036-.191.038-.187.038-.183.04-.179.041-.175.042-.172.043-.168.043-.163.045-.16.046-.155.046-.152.048-.148.048-.143.048-.139.049-.136.05-.131.05-.126.051-.123.051-.118.051-.114.052-.11.052-.106.052-.101.052-.096.052-.092.052-.088.052-.083.052-.079.052-.074.051-.07.052-.065.051-.06.05-.056.05-.051.05-.023.025-.023.024-.021.024-.02.025-.019.024-.018.024-.017.023-.015.024-.014.023-.013.023-.012.023-.01.023-.01.022-.008.022-.006.023-.006.021-.004.022-.004.021-.001.021-.001.021.001.021.001.021.004.021.004.022.006.021.006.023.008.022.01.022.01.023.012.023.013.023.014.023.015.024.017.023.018.024.019.024.02.025.021.024.023.024.023.025.051.05.056.05.06.05.065.051.07.052.074.051.079.052.083.052.088.052.092.052.096.052.101.052.106.052.11.052.114.052.118.051.123.051.126.051.131.05.136.05.139.049.143.048.148.048.152.048.155.046.16.046.163.045.168.043.172.043.175.042.179.041.183.04.187.038.191.038.194.036.198.034.202.033.205.032.21.031.212.028.216.027.22.026.224.023.226.022.231.021.233.018.237.016.241.014.244.012.247.011.25.008.254.005.257.004.26.001.26-.001.257-.004.254-.005.25-.008.247-.011.244-.012.241-.014.237-.016.233-.018.231-.021.226-.022.224-.023.22-.026.216-.027.212-.028.21-.031.205-.032.202-.033.198-.034.194-.036.191-.038.187-.038.183-.04.179-.041.175-.042.172-.043.168-.043.163-.045.16-.046.155-.046.152-.048.148-.048.143-.048.139-.049.136-.05.131-.05.126-.051.123-.051.118-.051.114-.052.11-.052.106-.052.101-.052.096-.052.092-.052.088-.052.083-.052.079-.052.074-.051.07-.052.065-.051.06-.05.056-.05.051-.05.023-.025.023-.024.021-.024.02-.025.019-.024.018-.024.017-.023.015-.024.014-.023.013-.023.012-.023.01-.023.01-.022.008-.022.006-.023.006-.021.004-.022.004-.021.001-.021.001-.021-.001-.021-.001-.021-.004-.021-.004-.022-.006-.021-.006-.023-.008-.022-.01-.022-.01-.023-.012-.023-.013-.023-.014-.023-.015-.024-.017-.023-.018-.024-.019-.024-.02-.025-.021-.024-.023-.024-.023-.025-.051-.05-.056-.05-.06-.05-.065-.051-.07-.052-.074-.051-.079-.052-.083-.052-.088-.052-.092-.052-.096-.052-.101-.052-.106-.052-.11-.052-.114-.052-.118-.051-.123-.051-.126-.051-.131-.05-.136-.05-.139-.049-.143-.048-.148-.048-.152-.048-.155-.046-.16-.046-.163-.045-.168-.043-.172-.043-.175-.042-.179-.041-.183-.04-.187-.038-.191-.038-.194-.036-.198-.034-.202-.033-.205-.032-.21-.031-.212-.028-.216-.027-.22-.026-.224-.023-.226-.022-.231-.021-.233-.018-.237-.016-.241-.014-.244-.012-.247-.011-.25-.008-.254-.005-.257-.004-.26-.001-.26.001z" transform="scale(.5)"/></symbol></defs><defs><symbol height="24" width="24" id="clock"><path d="M12 2c5.514 0 10 4.486 10 10s-4.486 10-10 10-10-4.486-10-10 4.486-10 10-10zm0-2c-6.627 0-12 5.373-12 12s5.373 12 12 12 12-5.373 12-12-5.373-12-12-12zm5.848 12.459c.202.038.202.333.001.372-1.907.361-6.045 1.111-6.547 1.111-.719 0-1.301-.582-1.301-1.301 0-.512.77-5.447 1.125-7.445.034-.192.312-.181.343.014l.985 6.238 5.394 1.011z" transform="scale(.5)"/></symbol></defs><defs><marker orient="auto" markerHeight="12" markerWidth="12" markerUnits="userSpaceOnUse" refY="5" refX="7.9" id="arrowhead"><path d="M 0 0 L 10 5 L 0 10 z"/></marker></defs><defs><marker refY="4.5" refX="4" orient="auto" markerHeight="8" markerWidth="15" id="crosshead"><path style="stroke-dasharray: 0, 0;" d="M 1,2 L 6,7 M 6,2 L 1,7" stroke-width="1pt" stroke="#000000" fill="none"/></marker></defs><defs><marker orient="auto" markerHeight="28" markerWidth="20" refY="7" refX="15.5" id="filled-head"><path d="M 18,7 L9,13 L14,7 L9,1 Z"/></marker></defs><defs><marker orient="auto" markerHeight="40" markerWidth="60" refY="15" refX="15" id="sequencenumber"><circle r="6" cy="15" cx="15"/></marker></defs><g><rect class="note" ry="0" rx="0" height="39" width="336" stroke="#666" fill="#EDF2AE" y="75" x="263.5"/><text style="font-size: 16px; font-weight: 400;" dy="1em" class="noteText" alignment-baseline="middle" dominant-baseline="middle" text-anchor="middle" y="80" x="432"><tspan x="432">1) Réception webhook (messages/status)</tspan></text></g><g><rect class="note" ry="0" rx="0" height="39" width="403" stroke="#666" fill="#EDF2AE" y="598" x="1608"/><text style="font-size: 16px; font-weight: 400;" dy="1em" class="noteText" alignment-baseline="middle" dominant-baseline="middle" text-anchor="middle" y="603" x="1810"><tspan x="1810">2) Après 30s, traitement batch</tspan></text></g><g><rect class="note" ry="0" rx="0" height="39" width="475" stroke="#666" fill="#EDF2AE" y="1291" x="549.5"/><text style="font-size: 16px; font-weight: 400;" dy="1em" class="noteText" alignment-baseline="middle" dominant-baseline="middle" text-anchor="middle" y="1296" x="787"><tspan x="787">3) Envoi direct via routes (send-text, etc.)</tspan></text></g><text style="font-size: 16px; font-weight: 400;" dy="1em" class="messageText" alignment-baseline="middle" dominant-baseline="middle" text-anchor="middle" y="129" x="430">POST /api/whatsapp/webhook</text><line style="fill: none;" marker-start="url(#sequencenumber)" marker-end="url(#arrowhead)" stroke="none" stroke-width="2" class="messageLine0" y2="160" x2="570.5" y1="160" x1="289.5"/><text class="sequenceNumber" text-anchor="middle" font-size="12px" font-family="sans-serif" y="164" x="289.5">1</text><text style="font-size: 16px; font-weight: 400;" dy="1em" class="messageText" alignment-baseline="middle" dominant-baseline="middle" text-anchor="middle" y="175" x="786">process_webhook_entry_with_user_routing(entry)</text><line style="fill: none;" marker-start="url(#sequencenumber)" marker-end="url(#arrowhead)" stroke="none" stroke-width="2" class="messageLine0" y2="206" x2="995.5" y1="206" x1="575.5"/><text class="sequenceNumber" text-anchor="middle" font-size="12px" font-family="sans-serif" y="210" x="575.5">2</text><text style="font-size: 16px; font-weight: 400;" dy="1em" class="messageText" alignment-baseline="middle" dominant-baseline="middle" text-anchor="middle" y="221" x="1201">SELECT social_accounts by phone_number_id</text><line style="fill: none;" marker-start="url(#sequencenumber)" marker-end="url(#arrowhead)" stroke="none" stroke-width="2" class="messageLine0" y2="252" x2="1400.5" y1="252" x1="1000.5"/><text class="sequenceNumber" text-anchor="middle" font-size="12px" font-family="sans-serif" y="256" x="1000.5">3</text><text style="font-size: 16px; font-weight: 400;" dy="1em" class="messageText" alignment-baseline="middle" dominant-baseline="middle" text-anchor="middle" y="267" x="1204">user_info</text><line style="stroke-dasharray: 3, 3; fill: none;" marker-start="url(#sequencenumber)" marker-end="url(#arrowhead)" stroke="none" stroke-width="2" class="messageLine1" y2="298" x2="1003.5" y1="298" x1="1403.5"/><text class="sequenceNumber" text-anchor="middle" font-size="12px" font-family="sans-serif" y="302" x="1403.5">4</text><text style="font-size: 16px; font-weight: 400;" dy="1em" class="messageText" alignment-baseline="middle" dominant-baseline="middle" text-anchor="middle" y="313" x="1001">process_webhook_change_for_user(value,user)</text><path style="fill: none;" marker-start="url(#sequencenumber)" marker-end="url(#arrowhead)" stroke="none" stroke-width="2" class="messageLine0" d="M 1000.5,344 C 1060.5,334 1060.5,374 1000.5,364"/><text class="sequenceNumber" text-anchor="middle" font-size="12px" font-family="sans-serif" y="348" x="1000.5">5</text><text style="font-size: 16px; font-weight: 400;" dy="1em" class="messageText" alignment-baseline="middle" dominant-baseline="middle" text-anchor="middle" y="389" x="1201">get_or_create_conversation(...)</text><line style="fill: none;" marker-start="url(#sequencenumber)" marker-end="url(#arrowhead)" stroke="none" stroke-width="2" class="messageLine0" y2="420" x2="1400.5" y1="420" x1="1000.5"/><text class="sequenceNumber" text-anchor="middle" font-size="12px" font-family="sans-serif" y="424" x="1000.5">6</text><text style="font-size: 16px; font-weight: 400;" dy="1em" class="messageText" alignment-baseline="middle" dominant-baseline="middle" text-anchor="middle" y="435" x="1201">INSERT conversation_messages (inbound)</text><line style="fill: none;" marker-start="url(#sequencenumber)" marker-end="url(#arrowhead)" stroke="none" stroke-width="2" class="messageLine0" y2="466" x2="1400.5" y1="466" x1="1000.5"/><text class="sequenceNumber" text-anchor="middle" font-size="12px" font-family="sans-serif" y="470" x="1000.5">7</text><text style="font-size: 16px; font-weight: 400;" dy="1em" class="messageText" alignment-baseline="middle" dominant-baseline="middle" text-anchor="middle" y="481" x="1315">add_message_to_batch(platform, account_id, contact_id, message_data)</text><line style="fill: none;" marker-start="url(#sequencenumber)" marker-end="url(#arrowhead)" stroke="none" stroke-width="2" class="messageLine0" y2="512" x2="1629" y1="512" x1="1000.5"/><text class="sequenceNumber" text-anchor="middle" font-size="12px" font-family="sans-serif" y="516" x="1000.5">8</text><text style="font-size: 16px; font-weight: 400;" dy="1em" class="messageText" alignment-baseline="middle" dominant-baseline="middle" text-anchor="middle" y="527" x="1634">set deadline (30s) + zadd conv:deadlines</text><path style="fill: none;" marker-start="url(#sequencenumber)" marker-end="url(#arrowhead)" stroke="none" stroke-width="2" class="messageLine0" d="M 1634,558 C 1694,548 1694,588 1634,578"/><text class="sequenceNumber" text-anchor="middle" font-size="12px" font-family="sans-serif" y="562" x="1634">9</text><text style="font-size: 16px; font-weight: 400;" dy="1em" class="messageText" alignment-baseline="middle" dominant-baseline="middle" text-anchor="middle" y="652" x="1811">get_due_conversations()</text><line style="fill: none;" marker-start="url(#sequencenumber)" marker-end="url(#arrowhead)" stroke="none" stroke-width="2" class="messageLine0" y2="683" x2="1637" y1="683" x1="1985"/><text class="sequenceNumber" text-anchor="middle" font-size="12px" font-family="sans-serif" y="687" x="1985">10</text><text style="font-size: 16px; font-weight: 400;" dy="1em" class="messageText" alignment-baseline="middle" dominant-baseline="middle" text-anchor="middle" y="698" x="1808">[{platform,account_id,contact_id}]</text><line style="stroke-dasharray: 3, 3; fill: none;" marker-start="url(#sequencenumber)" marker-end="url(#arrowhead)" stroke="none" stroke-width="2" class="messageLine1" y2="729" x2="1982" y1="729" x1="1634"/><text class="sequenceNumber" text-anchor="middle" font-size="12px" font-family="sans-serif" y="733" x="1634">11</text><text style="font-size: 16px; font-weight: 400;" dy="1em" class="messageText" alignment-baseline="middle" dominant-baseline="middle" text-anchor="middle" y="744" x="1811">process_batch_for_conversation(...)</text><line style="fill: none;" marker-start="url(#sequencenumber)" marker-end="url(#arrowhead)" stroke="none" stroke-width="2" class="messageLine0" y2="775" x2="1637" y1="775" x1="1985"/><text class="sequenceNumber" text-anchor="middle" font-size="12px" font-family="sans-serif" y="779" x="1985">12</text><text style="font-size: 16px; font-weight: 400;" dy="1em" class="messageText" alignment-baseline="middle" dominant-baseline="middle" text-anchor="middle" y="790" x="1808">{messages[], context[], conversation_id}</text><line style="stroke-dasharray: 3, 3; fill: none;" marker-start="url(#sequencenumber)" marker-end="url(#arrowhead)" stroke="none" stroke-width="2" class="messageLine1" y2="821" x2="1982" y1="821" x1="1634"/><text class="sequenceNumber" text-anchor="middle" font-size="12px" font-family="sans-serif" y="825" x="1634">13</text><text style="font-size: 16px; font-weight: 400;" dy="1em" class="messageText" alignment-baseline="middle" dominant-baseline="middle" text-anchor="middle" y="836" x="1494">generate_smart_response(messages, context)</text><line style="fill: none;" marker-start="url(#sequencenumber)" marker-end="url(#arrowhead)" stroke="none" stroke-width="2" class="messageLine0" y2="867" x2="1003.5" y1="867" x1="1985"/><text class="sequenceNumber" text-anchor="middle" font-size="12px" font-family="sans-serif" y="871" x="1985">14</text><text style="font-size: 16px; font-weight: 400;" dy="1em" class="messageText" alignment-baseline="middle" dominant-baseline="middle" text-anchor="middle" y="882" x="1491">response_content</text><line style="stroke-dasharray: 3, 3; fill: none;" marker-start="url(#sequencenumber)" marker-end="url(#arrowhead)" stroke="none" stroke-width="2" class="messageLine1" y2="913" x2="1982" y1="913" x1="1000.5"/><text class="sequenceNumber" text-anchor="middle" font-size="12px" font-family="sans-serif" y="917" x="1000.5">15</text><text style="font-size: 16px; font-weight: 400;" dy="1em" class="messageText" alignment-baseline="middle" dominant-baseline="middle" text-anchor="middle" y="928" x="1494">get_user_credentials_by_platform_account(...)</text><line style="fill: none;" marker-start="url(#sequencenumber)" marker-end="url(#arrowhead)" stroke="none" stroke-width="2" class="messageLine0" y2="959" x2="1003.5" y1="959" x1="1985"/><text class="sequenceNumber" text-anchor="middle" font-size="12px" font-family="sans-serif" y="963" x="1985">16</text><text style="font-size: 16px; font-weight: 400;" dy="1em" class="messageText" alignment-baseline="middle" dominant-baseline="middle" text-anchor="middle" y="974" x="1491">credentials</text><line style="stroke-dasharray: 3, 3; fill: none;" marker-start="url(#sequencenumber)" marker-end="url(#arrowhead)" stroke="none" stroke-width="2" class="messageLine1" y2="1005" x2="1982" y1="1005" x1="1000.5"/><text class="sequenceNumber" text-anchor="middle" font-size="12px" font-family="sans-serif" y="1009" x="1000.5">17</text><text style="font-size: 16px; font-weight: 400;" dy="1em" class="messageText" alignment-baseline="middle" dominant-baseline="middle" text-anchor="middle" y="1020" x="1494">send_response(platform, credentials, contact_id, content)</text><line style="fill: none;" marker-start="url(#sequencenumber)" marker-end="url(#arrowhead)" stroke="none" stroke-width="2" class="messageLine0" y2="1051" x2="1003.5" y1="1051" x1="1985"/><text class="sequenceNumber" text-anchor="middle" font-size="12px" font-family="sans-serif" y="1055" x="1985">18</text><text style="font-size: 16px; font-weight: 400;" dy="1em" class="messageText" alignment-baseline="middle" dominant-baseline="middle" text-anchor="middle" y="1066" x="1606">POST /{phone_number_id}/messages (Bearer token)</text><line style="fill: none;" marker-start="url(#sequencenumber)" marker-end="url(#arrowhead)" stroke="none" stroke-width="2" class="messageLine0" y2="1097" x2="2211.5" y1="1097" x1="1000.5"/><text class="sequenceNumber" text-anchor="middle" font-size="12px" font-family="sans-serif" y="1101" x="1000.5">19</text><text style="font-size: 16px; font-weight: 400;" dy="1em" class="messageText" alignment-baseline="middle" dominant-baseline="middle" text-anchor="middle" y="1112" x="1609">200 OK + message_id</text><line style="stroke-dasharray: 3, 3; fill: none;" marker-start="url(#sequencenumber)" marker-end="url(#arrowhead)" stroke="none" stroke-width="2" class="messageLine1" y2="1143" x2="1003.5" y1="1143" x1="2214.5"/><text class="sequenceNumber" text-anchor="middle" font-size="12px" font-family="sans-serif" y="1147" x="2214.5">20</text><text style="font-size: 16px; font-weight: 400;" dy="1em" class="messageText" alignment-baseline="middle" dominant-baseline="middle" text-anchor="middle" y="1158" x="1494">save_response_to_db(conversation_id, content, user_id)</text><line style="fill: none;" marker-start="url(#sequencenumber)" marker-end="url(#arrowhead)" stroke="none" stroke-width="2" class="messageLine0" y2="1189" x2="1003.5" y1="1189" x1="1985"/><text class="sequenceNumber" text-anchor="middle" font-size="12px" font-family="sans-serif" y="1193" x="1985">21</text><text style="font-size: 16px; font-weight: 400;" dy="1em" class="messageText" alignment-baseline="middle" dominant-baseline="middle" text-anchor="middle" y="1204" x="1201">INSERT conversation_messages (outbound)</text><line style="fill: none;" marker-start="url(#sequencenumber)" marker-end="url(#arrowhead)" stroke="none" stroke-width="2" class="messageLine0" y2="1235" x2="1400.5" y1="1235" x1="1000.5"/><text class="sequenceNumber" text-anchor="middle" font-size="12px" font-family="sans-serif" y="1239" x="1000.5">22</text><text style="font-size: 16px; font-weight: 400;" dy="1em" class="messageText" alignment-baseline="middle" dominant-baseline="middle" text-anchor="middle" y="1250" x="1811">add_response_to_history(...)</text><line style="fill: none;" marker-start="url(#sequencenumber)" marker-end="url(#arrowhead)" stroke="none" stroke-width="2" class="messageLine0" y2="1281" x2="1637" y1="1281" x1="1985"/><text class="sequenceNumber" text-anchor="middle" font-size="12px" font-family="sans-serif" y="1285" x="1985">23</text><text style="font-size: 16px; font-weight: 400;" dy="1em" class="messageText" alignment-baseline="middle" dominant-baseline="middle" text-anchor="middle" y="1345" x="323">POST /api/whatsapp/send-text</text><line style="fill: none;" marker-start="url(#sequencenumber)" marker-end="url(#arrowhead)" stroke="none" stroke-width="2" class="messageLine0" y2="1376" x2="570.5" y1="1376" x1="76"/><text class="sequenceNumber" text-anchor="middle" font-size="12px" font-family="sans-serif" y="1380" x="76">24</text><text style="font-size: 16px; font-weight: 400;" dy="1em" class="messageText" alignment-baseline="middle" dominant-baseline="middle" text-anchor="middle" y="1391" x="786">get_user_credentials_by_user_id(current_user)</text><line style="fill: none;" marker-start="url(#sequencenumber)" marker-end="url(#arrowhead)" stroke="none" stroke-width="2" class="messageLine0" y2="1422" x2="995.5" y1="1422" x1="575.5"/><text class="sequenceNumber" text-anchor="middle" font-size="12px" font-family="sans-serif" y="1426" x="575.5">25</text><text style="font-size: 16px; font-weight: 400;" dy="1em" class="messageText" alignment-baseline="middle" dominant-baseline="middle" text-anchor="middle" y="1437" x="1394">send_text_message (token + payload)</text><line style="fill: none;" marker-start="url(#sequencenumber)" marker-end="url(#arrowhead)" stroke="none" stroke-width="2" class="messageLine0" y2="1468" x2="2211.5" y1="1468" x1="575.5"/><text class="sequenceNumber" text-anchor="middle" font-size="12px" font-family="sans-serif" y="1472" x="575.5">26</text><text style="font-size: 16px; font-weight: 400;" dy="1em" class="messageText" alignment-baseline="middle" dominant-baseline="middle" text-anchor="middle" y="1483" x="1397">200 OK + message_id</text><line style="stroke-dasharray: 3, 3; fill: none;" marker-start="url(#sequencenumber)" marker-end="url(#arrowhead)" stroke="none" stroke-width="2" class="messageLine1" y2="1514" x2="578.5" y1="1514" x1="2214.5"/><text class="sequenceNumber" text-anchor="middle" font-size="12px" font-family="sans-serif" y="1518" x="2214.5">27</text></svg>